# xmcd CD database file
#
# Track frame offsets:
#	150
#	30914
#	70719
#	127248
#	144116
#	167424
#
# Disc length: 2792 seconds
#
# Revision: 0
# Processed by: cddbd v1.5.2PL0 Copyright (c) Steve Scherf et al.
# Submitted via: CDex 1.51
#
DISCID=440ae606
DTITLE=Robin Bibi - Switch on the live II
DYEAR=2012
DGENRE=Blues
TTITLE0=If I had possession over judgement day (Johnson)
TTITLE1=Don't let me down (Lennon/McCartney)
TTITLE2=Band Intro (Bibi/Marten/Innes)
TTITLE3=Jelly out (Spevock/Loewenthal/York)
TTITLE4=Sunshine of your love (Bruce/Brown)
TTITLE5=Switch off the night (Holmes)
EXTD=YEAR: 2012
EXTT0=
EXTT1=
EXTT2=
EXTT3=
EXTT4=
EXTT5=
PLAYORDER=
